<svg width="204" height="61" viewBox="0 0 204 61" fill="none" xmlns="http://www.w3.org/2000/svg">
<path id="Vector" d="M35.626 0.482067C33.8881 0.701145 31.007 1.40219 29.2234 2.0156C25.8849 3.1548 23.6897 3.76822 21.5402 4.16256C19.7109 4.46927 15.0461 8.06213 12.668 10.8663C11.5247 12.2246 9.87832 14.7659 9.0094 16.5185C7.82034 18.7531 7.04288 19.717 6.35688 19.8485C5.80809 19.9361 6.40262 20.0676 7.63741 20.1552C8.91793 20.199 10.5643 20.4181 11.296 20.5933C12.3936 20.8562 12.1192 20.9439 9.83259 20.9877C8.27767 20.9877 6.85995 21.2506 6.72275 21.4696C5.85382 22.7841 5.16783 29.5755 5.57942 32.5549C6.26542 37.5937 6.44835 37.2432 3.01838 37.2432H0L0.274398 38.5577C0.411597 39.3025 1.18906 41.2304 2.01225 42.8516L3.52144 45.7872L6.67701 45.831C9.83259 45.9186 9.83259 45.9186 11.479 47.8027C17.6072 55.1199 24.5129 58.7127 33.9339 59.5891C42.2115 60.3339 47.3794 59.5452 53.5533 56.522C58.0809 54.2874 61.7852 51.4394 63.9804 48.4599C64.9408 47.1455 66.1299 46.0063 66.5872 45.9186C67.822 45.7434 69.0111 44.0346 70.2916 40.5294C71.2062 37.9881 71.2977 37.4185 70.7489 37.3308C70.2459 37.1994 70.0629 36.586 70.0629 35.0962V33.0369L73.0356 33.4751L76.0082 33.8694V42.5887C76.0082 50.6945 75.9625 51.3079 75.2308 51.1765C74.7734 51.0889 74.3618 50.6069 74.2704 50.0373C74.1789 49.4239 73.813 49.0734 73.2185 49.0734C71.9837 49.0734 72.1209 50.1687 73.4929 51.0012C74.499 51.6146 74.5905 51.9652 74.5448 54.5941C74.499 56.7411 74.682 57.6612 75.1393 58.0117C75.5509 58.2746 75.9625 58.8442 76.1454 59.2823C76.4198 59.9834 77.3802 60.0272 90.0025 59.9396L103.585 59.8081L104.866 56.1715C105.597 54.1559 106.283 52.1404 106.421 51.6585C106.695 50.9136 106.466 50.826 104.454 50.826C101.893 50.826 101.481 50.6069 102.122 49.4677C102.533 48.7228 103.219 48.6352 109.668 48.6352C116.756 48.6352 116.802 48.6352 117.717 49.7306C118.906 51.1765 120.369 51.1765 120.369 49.7306C120.369 48.2847 121.833 48.2847 122.839 49.7306C123.479 50.6945 123.936 50.826 126.086 50.826C127.412 50.826 128.693 51.0012 128.83 51.2641C129.013 51.5708 126.635 51.7023 122.016 51.7023C118.083 51.7023 114.881 51.8775 114.881 52.0966C114.881 52.3157 115.156 52.491 115.476 52.4471C115.75 52.4471 118.997 52.491 122.656 52.5348L129.287 52.5786L130.43 56.2153L131.62 59.8081L145.202 59.9396L158.785 60.0272L158.831 58.8442C158.968 52.4471 158.693 48.8105 157.962 48.0656C157.23 47.2769 157.23 47.1893 157.962 46.7073C158.602 46.2692 158.785 45.2614 158.876 41.1428L159.014 36.1478L160.386 35.9287C162.352 35.622 162.535 34.1761 160.66 34.1761C159.196 34.1761 158.739 33.5627 159.928 33.1245C160.431 32.9493 160.614 31.6786 160.706 26.8589L160.843 20.8124L162.123 22.8279C162.947 24.1862 163.358 25.4568 163.358 26.7275C163.358 28.1734 163.724 29.0935 165.005 30.8023C166.194 32.3797 166.468 33.0807 166.102 33.2998C165.691 33.5627 166.468 34.921 168.755 37.9442C170.63 40.4855 171.773 42.4572 171.59 42.7201C171.133 43.2459 174.243 47.496 177.398 50.6069C178.587 51.8337 180.645 54.3312 181.88 56.1715C183.161 58.0117 184.578 59.6329 185.081 59.7643C185.584 59.8958 189.563 60.0272 193.908 60.0272H201.774V55.2951C201.774 52.71 201.591 50.3878 201.362 50.1249C201.134 49.9058 200.859 48.197 200.768 46.3568C200.585 43.7717 200.676 42.9392 201.179 42.7639C201.637 42.5887 201.774 41.4057 201.774 38.1633C201.774 34.2637 201.865 33.738 202.689 33.1684C203.557 32.5988 203.603 32.1606 203.512 24.9311C203.375 17.3948 203.375 17.3072 202.368 17.1757C201.774 17.0881 201.317 16.869 201.317 16.65C201.317 16.4309 201.774 16.2118 202.368 16.1242C203.192 16.0365 203.42 15.686 203.512 14.1525C203.649 12.6628 203.512 12.3122 202.734 12.0493C201.82 11.7864 201.774 11.4359 201.774 5.87136V9.53674e-05L193.679 0.0877304L185.539 0.219177L185.401 6.04662C185.31 10.9101 185.401 11.8741 185.996 12.0931C186.453 12.2684 186.682 12.9695 186.682 14.2839C186.682 15.9051 186.545 16.2118 185.813 16.2118C185.31 16.2118 184.761 16.3871 184.624 16.65C184.441 16.9128 184.853 17.0881 185.493 17.0881H186.682L186.728 23.3099C186.819 30.4518 186.865 31.4596 187.368 32.5111C187.551 32.9931 187.505 33.2998 187.185 33.2998C186.819 33.2998 186.911 33.738 187.368 34.6143C188.1 35.9725 188.283 38.5577 187.642 38.5577C187.459 38.5577 186.408 37.3746 185.356 35.9287C184.304 34.4828 183.664 33.2998 183.892 33.2998C184.167 33.2998 184.395 33.0807 184.395 32.8178C184.395 32.5988 181.514 28.4363 177.993 23.6166C174.471 18.8407 171.59 14.7221 171.59 14.5468C171.59 14.3716 173.145 14.2401 175.02 14.2839C176.941 14.2839 178.587 14.1525 178.724 13.9334C178.862 13.7581 177.215 13.5829 175.066 13.5829C171.499 13.5829 170.996 13.4514 169.166 12.2684C167.84 11.4359 165.828 9.20134 163.175 5.52084L159.151 0.0877304L151.285 9.53674e-05C146.94 9.53674e-05 143.053 0.0877266 142.641 0.262989C141.955 0.482063 141.864 1.31456 141.864 6.13425C141.864 11.3045 141.955 11.7864 142.733 12.0493C143.236 12.1808 143.739 12.5751 143.876 12.9256C144.059 13.4514 145.019 13.5829 147.9 13.5829C152.611 13.5829 152.199 14.3716 147.352 14.5468L143.922 14.6783L143.784 23.9671C143.693 33.0369 143.647 33.2998 142.733 33.2998C142.23 33.2998 141.955 33.5189 142.092 33.738C142.23 34.0009 142.961 34.1761 143.739 34.1761C144.608 34.1761 145.065 34.3952 145.065 34.8333C145.065 35.2277 144.653 35.4906 144.013 35.4906C142.55 35.4906 141.864 36.2793 141.864 38.1195C141.818 39.434 141.589 39.0396 140.309 35.7097C138.251 30.2765 137.885 29.7069 136.787 30.0137C135.873 30.3204 134.546 29.6193 134.546 28.8745C134.546 28.6554 135.918 28.4801 137.565 28.4801C140.263 28.4801 140.537 28.3925 140.263 27.6914C140.08 27.2971 138.845 23.9671 137.519 20.3743C133.357 9.06989 133.677 9.6833 131.848 9.55186C130.568 9.46423 130.202 9.20134 129.836 8.10595C129.607 7.36109 128.784 5.25794 128.052 3.37388L126.726 9.53674e-05H118.494H110.262L109.21 2.2785C107.244 6.61622 106.466 9.24514 107.107 9.63948C107.564 9.90238 107.015 11.7864 104.911 17.5701C103.402 21.7764 101.802 25.9388 101.39 26.8151L100.704 28.4801H97.5027C95.6276 28.4801 94.3014 28.6554 94.3014 28.9183C94.3014 29.1812 94.5758 29.444 94.8959 29.5317C97.1368 30.1889 97.1368 29.8384 95.0789 35.5782L93.1581 40.9675L93.0209 37.3308L92.8837 33.738H90.1854C87.7616 33.738 87.4415 33.6503 87.4415 32.8617C87.4415 32.1606 87.7616 31.9853 89.1793 31.9415C90.094 31.8977 91.6031 31.8539 92.4721 31.8101C94.5301 31.7663 94.6673 30.5833 92.7007 30.2327L91.3288 30.0137L91.1916 16.5185L91.1001 3.06718L92.7922 2.97954L94.5301 2.93573L93.0209 2.76047C91.8318 2.62902 91.3745 2.2785 91.0086 1.27074L90.5513 9.53674e-05H82.3651H74.1789V1.27074C74.1789 2.14705 73.9045 2.62902 73.4014 2.76047C72.624 2.93573 72.624 2.97955 73.3557 3.02336C74.0874 3.06718 74.1789 4.11874 74.2704 16.5185L74.4076 30.0137H75.7795C76.6485 30.0137 77.1973 30.2765 77.2887 30.7147C77.3802 31.3281 76.8771 31.4596 74.0874 31.6348C72.2581 31.7663 70.6574 31.7663 70.566 31.7225C70.4745 31.6348 70.7489 31.0652 71.1605 30.4518C71.8922 29.4002 71.8922 29.225 71.2062 28.2172L70.4745 27.1656H53.599C44.2695 27.2095 36.6778 27.2971 36.6778 27.4285C36.6778 27.5162 36.9522 27.9981 37.2266 28.4801C37.684 29.1812 37.684 29.5317 37.2266 30.2327C36.9522 30.7147 36.6778 32.4673 36.6778 34.1761V37.2432H45.8702H55.0168L54.1936 38.6015C53.0045 40.617 48.98 44.3413 47.1507 45.1738C46.3275 45.6119 43.9951 46.2692 42.0743 46.6635C39.0102 47.3646 38.2328 47.3646 35.9004 46.8826C34.4369 46.5759 31.4186 46.1815 29.1319 46.0501C25.519 45.7872 24.7873 45.6119 22.958 44.3851C20.8085 42.983 19.0707 41.2742 17.7901 39.434C16.4639 37.5499 16.7383 37.2432 19.8024 37.2432H22.5921L22.2262 35.5782C21.9976 34.7019 21.8146 31.9853 21.8146 29.5755C21.8146 26.0265 21.9976 24.7996 22.8208 23.0908L23.8269 21.0315H26.891C30.9612 21.0315 30.4582 20.6372 26.2507 20.5495C22.7293 20.4619 21.6317 19.9799 23.8726 19.5418C24.6501 19.4103 25.8849 18.6216 26.6623 17.7453C27.4398 16.9128 29.5892 15.5108 31.4643 14.6344C34.3455 13.2762 35.3059 13.0133 37.9126 13.0133C42.5774 13.0133 47.791 14.3277 47.608 15.4231C47.5623 15.7298 48.6599 17.1757 50.0776 18.6216C51.4953 20.0676 52.6844 21.382 52.6844 21.5573C52.6844 22.565 56.0229 21.6011 60.8249 19.2789C67.0445 16.2556 68.7824 15.0288 67.7305 14.4154C67.4104 14.1963 66.7701 14.021 66.3586 14.021C65.947 14.021 65.0323 13.2324 64.3463 12.2246C62.7456 10.0338 58.1723 5.95899 56.2058 4.95124L54.7424 4.20638L55.8857 3.94348L57.029 3.68059L55.657 2.97954C50.9923 0.61351 42.4402 -0.438057 35.626 0.482067ZM76.9229 2.8481C76.9229 3.19862 76.7399 3.50533 76.5113 3.50533C75.9167 3.50533 75.5051 2.80428 75.871 2.45376C76.3741 1.97179 76.9229 2.19086 76.9229 2.8481ZM122.381 23.5728C123.982 28.4801 123.982 28.4801 121.513 28.4801C119.912 28.4801 119.546 28.6116 119.729 29.1373C119.866 29.4879 120.369 29.8822 120.827 30.0137C121.375 30.1889 122.061 31.4157 122.839 33.7818C123.479 35.7097 124.028 37.3746 124.028 37.5061C124.028 37.5937 121.147 37.6813 117.579 37.6813C112.274 37.6813 111.177 37.5937 111.36 37.0679C111.497 36.7612 112.046 35.1401 112.549 33.4751C113.601 30.3642 113.418 29.8384 111.543 29.7946C111.085 29.7946 110.765 29.5317 110.857 29.225C110.994 28.9183 112.274 28.6116 114.241 28.4801L117.397 28.261L118.677 24.3176C119.409 22.1269 120.095 20.1114 120.186 19.7608C120.552 18.7093 121.147 19.7608 122.381 23.5728ZM141.315 48.0656C141.955 49.4677 142.047 50.826 141.406 50.826C140.949 50.826 140.309 49.862 139.577 48.0218C139.211 47.0578 139.257 46.8826 139.943 46.8826C140.355 46.8826 140.995 47.4084 141.315 48.0656ZM141.864 52.1404C141.864 52.4033 139.897 52.5786 136.833 52.5786C133.769 52.5786 131.802 52.4033 131.802 52.1404C131.802 51.8775 133.769 51.7023 136.833 51.7023C139.897 51.7023 141.864 51.8775 141.864 52.1404Z" fill="#C6C2C2" fill-opacity="0.33"/>
</svg>
